<?xml version="1.0"?><svg xmlns="http://www.w3.org/2000/svg" width="52" height="52" viewBox="0 0 52 52"><path fill="#fff" d="m49.8 27.7l-7.2-22c-0.2-1-1.2-1.7-2.2-1.7h-28.8c-1 0-2 0.7-2.3 1.7l-7.1 22c-0.1 0.5-0.2 1-0.2 1.4v14.1c0 2.7 2.2 4.8 4.8 4.8h38.4c2.6 0 4.8-2.1 4.8-4.7v-14.2c0-0.4-0.1-0.9-0.2-1.4z m-11-0.1c-2.6 0-4.8 2.1-4.8 4.7v1.6c0 0.9-0.7 1.6-1.6 1.6h-12.8c-0.9 0-1.6-0.7-1.6-1.6v-1.6c0-2.6-2.2-4.7-4.8-4.7h-5.6l5.8-18.9h25.2l5.8 18.9h-5.6z m-5.3-14.6c-0.5-0.5-1.2-0.5-1.7 0l-7.8 7.7-3.4-3.4c-0.5-0.5-1.2-0.5-1.7 0l-1.7 1.6c-0.5 0.5-0.5 1.2 0 1.6l5.1 5c0.5 0.5 1.1 0.7 1.7 0.7s1.2-0.2 1.7-0.7l9.5-9.4c0.5-0.5 0.5-1.2 0-1.6l-1.7-1.5z"></path></svg>