<?xml version="1.0"?><svg xmlns="http://www.w3.org/2000/svg" width="52" height="52" viewBox="0 0 52 52"><path fill="#fff" d="m42.2 6.8v-1.6c0-1.8-1.5-3.2-3.2-3.2s-3.2 1.4-3.2 3.2v1.6h-6.5v-1.6c-0.1-1.8-1.5-3.2-3.3-3.2s-3.2 1.4-3.2 3.2v1.6h-6.5v-1.6c0-1.8-1.5-3.2-3.2-3.2s-3.3 1.4-3.3 3.2v1.6c-2.6 0-4.8 2.2-4.8 4.8v33.6c0 2.6 2.2 4.8 4.8 4.8h32.3c2.7 0 4.8-2.2 4.8-4.8v-33.6c0.1-2.6-2.1-4.8-4.7-4.8z m-28.3 12c0-0.9 0.7-1.6 1.6-1.6h17.8c0.9 0 1.6 0.7 1.6 1.6v1.6c0 0.9-0.7 1.6-1.6 1.6h-17.8c-0.9 0-1.6-0.7-1.6-1.6v-1.6z m21 20.8c0 0.9-0.7 1.6-1.6 1.6h-17.8c-0.9 0-1.6-0.7-1.6-1.6v-1.6c0-0.9 0.7-1.6 1.6-1.6h17.8c0.9 0 1.6 0.7 1.6 1.6v1.6z m3.2-9.6c0 0.9-0.7 1.6-1.6 1.6h-21c-0.9 0-1.6-0.7-1.6-1.6v-1.6c0-0.9 0.7-1.6 1.6-1.6h21c0.9 0 1.6 0.7 1.6 1.6v1.6z"></path></svg>