<?xml version="1.0"?><svg xmlns="http://www.w3.org/2000/svg" width="100" height="100" viewBox="0 0 100 100"><path fill="#fff" d="m75.8 41.4c-0.3-1.3-0.8-2.5-1.3-3.8-1.9-4.6-4.7-8.5-8.2-11.5-4.5-3.8-10.2-6.1-16.4-6.1-3 0-5.9 0.6-8.6 1.6-0.6 0.2-1.1 0.4-1.7 0.7-1.6 0.7-3.1 1.6-4.6 2.7-1.1 0.8-2.1 1.7-3.1 2.7-1.3 1.3-2.5 2.7-3.6 4.3-0.8 1.2-1.5 2.4-2.1 3.7-0.8 1.7-1.5 3.5-2.1 5.4-0.3 1-0.5 1.9-0.7 2.9-0.3 1.6-0.5 3.3-0.5 5v1c0 16.6 12.1 30 27 30s27-13.4 27-30c0-3-0.4-5.9-1.1-8.6z m-25.9 32.6c-11.6 0-21-10.8-21-24v-0.9c0-1.4 0.2-2.7 0.4-4.1 0.1-0.7 0.3-1.4 0.5-2.1 4.2-1.4 7.8-4.3 10.1-8 4.3 5.5 11 9.1 18.5 9.1 4 0 7.7-1 11-2.7 0.2 0.6 0.4 1.1 0.5 1.7 0.6 2.3 0.9 4.6 0.9 7 0.1 13.2-9.3 24-20.9 24z"></path><circle fill="#fff" cx="42" cy="52" r="4"></circle><circle fill="#fff" cx="58" cy="52" r="4"></circle></svg>