<?xml version="1.0"?><svg xmlns="http://www.w3.org/2000/svg" viewBox="0 0 100 100" width="100" height="100"><g opacity=".5"><path fill="#fff" d="m69.4 43.5c-0.2-1-0.6-1.9-1-2.8-1.4-3.5-3.5-6.4-6.1-8.6-3.4-2.8-7.7-4.6-12.3-4.6-2.3 0-4.4 0.5-6.5 1.2-0.5 0.2-0.8 0.3-1.3 0.5-1.2 0.5-2.3 1.2-3.5 2-0.8 0.6-1.6 1.3-2.3 2-1 1-1.9 2-2.7 3.2-0.6 0.9-1.1 1.8-1.6 2.8-0.6 1.3-1.1 2.6-1.6 4-0.2 0.7-0.4 1.4-0.5 2.2-0.2 1.2-0.4 2.5-0.4 3.8v0.7c0 12.4 9.1 22.5 20.2 22.5s20.3-10 20.3-22.5c0.1-2.2-0.2-4.3-0.7-6.4z m-19.5 24.5c-8.7 0-15.7-8.1-15.7-18v-0.7c0-1 0.2-2 0.3-3.1 0.1-0.5 0.2-1 0.4-1.6 3.1-1 5.9-3.2 7.6-6 3.2 4.1 8.2 6.8 13.9 6.8 3 0 5.8-0.7 8.2-2 0.2 0.5 0.3 0.8 0.4 1.3 0.5 1.7 0.7 3.5 0.7 5.2 0 10-7.1 18.1-15.8 18.1z"></path><circle fill="#fff" cx="44" cy="51.5" r="3"></circle><circle fill="#fff" cx="56" cy="51.5" r="3"></circle></g></svg>