<?xml version="1.0"?><svg xmlns="http://www.w3.org/2000/svg" width="100" height="100" viewBox="0 0 100 100"><path fill="#fff" d="m37 34c2.3 0 4-1.8 4-4v-5c0-2.2-1.8-4-4-4s-4 1.8-4 4v5c0 2.2 1.8 4 4 4z m26 0c2.3 0 4-1.8 4-4v-5c0-2.2-1.8-4-4-4s-4 1.8-4 4v5c0 2.2 1.8 4 4 4z m11-6c-0.6 0-1 0.4-1 0.9v1.2c0 5.4-4.4 9.8-9.8 9.8h-0.2c-5.5 0-10-4.5-10-10v-1.1c0-0.5-0.4-0.9-0.9-0.9h-4.1c-0.5 0-0.9 0.4-0.9 0.9v1.2c0 5.4-4.4 9.8-9.8 9.8h-0.3c-5.5 0-10-4.5-10-10v-1.1c0-0.5-0.4-0.9-0.9-0.9h-0.1c-3.3 0-6 2.7-6 6v36c0 3.3 2.7 6 6 6h48c3.3 0 6-2.7 6-6v-35.8c0-3.3-2.7-6-6-6z m-32.3 37h-11.4c-1.3 0-2.3-1.2-2.3-2.5 0-2 2.1-3.1 4.3-4 1.5-0.6 1.7-1.2 1.7-1.9 0-0.6-0.4-1.2-0.9-1.7-0.9-0.8-1.4-2-1.4-3.3 0-2.5 1.5-4.6 4.2-4.6s4.2 2.1 4.2 4.6c0 1.3-0.5 2.5-1.4 3.3-0.5 0.5-0.9 1.1-0.9 1.7 0 0.6 0.2 1.2 1.7 1.9 2.2 0.9 4.3 2 4.3 4 0.2 1.3-0.8 2.5-2.1 2.5z m26.3-2c0 1.1-0.9 2-2 2h-16c-1.1 0-2-0.9-2-2v-2c0-1.1 0.9-2 2-2h16c1.1 0 2 0.9 2 2v2z m4-12c0 1.1-0.9 2-2 2h-20c-1.1 0-2-0.9-2-2v-2c0-1.1 0.9-2 2-2h20c1.1 0 2 0.9 2 2v2z"></path></svg>