<?xml version="1.0"?><svg xmlns="http://www.w3.org/2000/svg" width="100" height="100" viewBox="0 0 100 100"><path fill="#fff" d="m70 26v-2c0-2.2-1.8-4-4-4s-4 1.8-4 4v2h-8v-2c0-2.2-1.8-4-4-4s-4 1.8-4 4v2h-8v-2c0-2.2-1.8-4-4-4s-4 1.8-4 4v2c-3.3 0-6 2.7-6 6v42c0 3.3 2.7 6 6 6h40c3.3 0 6-2.7 6-6v-42c0-3.3-2.7-6-6-6z m-35 15c0-1.1 0.9-2 2-2h22c1.1 0 2 0.9 2 2v2c0 1.1-0.9 2-2 2h-22c-1.1 0-2-0.9-2-2v-2z m26 26c0 1.1-0.9 2-2 2h-22c-1.1 0-2-0.9-2-2v-2c0-1.1 0.9-2 2-2h22c1.1 0 2 0.9 2 2v2z m4-12c0 1.1-0.9 2-2 2h-26c-1.1 0-2-0.9-2-2v-2c0-1.1 0.9-2 2-2h26c1.1 0 2 0.9 2 2v2z"></path></svg>