<?xml version="1.0"?><svg xmlns="http://www.w3.org/2000/svg" width="100" height="100" viewBox="0 0 100 100"><path fill="#fff" d="m48 42h-22c-3.3 0-6 2.7-6 6v9c0 2.2 1.8 4 4 4 1.1 0 2 0.9 2 2v11c0 3.3 2.7 6 6 6h10c3.3 0 6-2.7 6-6v-11c0-1.1 0.9-2 2-2 2.2 0 4-1.8 4-4v-9c0-3.3-2.7-6-6-6z"></path><circle fill="#fff" cx="37" cy="29" r="9"></circle><path fill="#fff" d="m74 42h-15.6c1 1.8 1.6 3.8 1.6 6v9c0 2.2-0.7 4.3-2 6v9c0 2.2 1.8 4 4 4h8c2.2 0 4-1.8 4-4v-10c0-1.1 0.9-2 2-2h2c1.1 0 2-0.9 2-2v-10c0-3.3-2.7-6-6-6z"></path><circle fill="#fff" cx="66" cy="31" r="7"></circle></svg>