<?xml version="1.0"?><svg xmlns="http://www.w3.org/2000/svg" width="100" height="100" viewBox="0 0 100 100"><path fill="#fff" d="m60.9 74h-1c-3.3 0-5.9-2.7-5.9-6v-2c0-0.6-0.5-1-1.1-1h-6c-0.6 0-0.9 0.4-0.9 1v2c0 3.3-2.8 6-6.1 6h-1c-1.1 0-1.9 0.9-1.9 2v2c0 1.1 0.8 2 1.9 2h22c1.1 0 2.1-0.9 2.1-2v-2c0-1.1-1-2-2.1-2z m17-50h-9.9v-2c0-1.1-1-2-2.1-2h-32c-1.1 0-1.9 0.9-1.9 2v2h-10.1c-1.1 0-1.9 0.9-1.9 2v13c0 5 3.9 9 8.9 9h4.6c2.8 6 8.9 10.9 16.3 11 7.6 0.1 14-4 16.7-11h4.5c5 0 9.1-4.1 9.1-9v-13c-0.1-1.1-1.1-2-2.2-2z m-45.9 16.5c0 0.5-0.1 1.5 0 1.5h-3.1c-1.7 0-2.9-1.4-2.9-3v-9h6v10.5z m26.8-4.1l-4 4.1 1 5.8c0.1 0.5-0.4 0.8-0.8 0.6l-5-2.7-5 2.7c-0.4 0.2-0.8-0.1-0.8-0.6l1-5.8-4-4.1c-0.3-0.3-0.1-0.9 0.3-1l5.6-0.8 2.5-5.3c0.2-0.4 0.8-0.4 1 0l2.5 5.3 5.6 0.8c0.2 0.1 0.4 0.7 0.1 1z m15.2 2.6c0 1.7-1.4 3-3.1 3h-3.1s0.2-0.9 0.2-1.4v-10.6h6v9z"></path></svg>