<?xml version="1.0"?><svg xmlns="http://www.w3.org/2000/svg" width="100" height="100" viewBox="0 0 100 100"><path fill="#fff" d="m79.7 52.2l-8.9-28.1c-0.3-1.2-1.5-2.1-2.8-2.1h-36c-1.3 0-2.5 0.9-2.9 2.1l-8.9 28.1c-0.1 0.6-0.2 1.2-0.2 1.8v18c0 3.3 2.7 6 6 6h48c3.3 0 6-2.7 6-6v-18c0-0.6-0.1-1.2-0.3-1.8z m-13.7-0.2c-3.3 0-6 2.7-6 6v2c0 1.1-0.9 2-2 2h-16c-1.1 0-2-0.9-2-2v-2c0-3.3-2.7-6-6-6h-7l7.2-24h31.6l7.2 24h-7z m-6.6-18.6c-0.6-0.6-1.5-0.6-2.1 0l-9.8 9.8-4.3-4.3c-0.6-0.6-1.5-0.6-2.1 0l-2.1 2.1c-0.6 0.6-0.6 1.5 0 2.1l6.4 6.4c0.6 0.6 1.4 0.9 2.1 0.9s1.5-0.3 2.1-0.9l11.9-11.9c0.6-0.6 0.6-1.5 0-2.1l-2.1-2.1z"></path></svg>