<?xml version="1.0"?><svg xmlns="http://www.w3.org/2000/svg" width="100" height="100" viewBox="0 0 100 100"><path fill="#fff" d="m73 42h-14c-3.3 0-6-2.7-6-6v-14c0-1.1-0.9-2-2-2h-20c-3.3 0-6 2.7-6 6v48c0 3.3 2.7 6 6 6h38c3.3 0 6-2.7 6-6v-30c0-1.1-0.9-2-2-2z m-40-4c0-1.1 0.9-2 2-2h8c1.1 0 2 0.9 2 2v2c0 1.1-0.9 2-2 2h-8c-1.1 0-2-0.9-2-2v-2z m30 26c0 1.1-0.9 2-2 2h-26c-1.1 0-2-0.9-2-2v-2c0-1.1 0.9-2 2-2h26c1.1 0 2 0.9 2 2v2z m4-12c0 1.1-0.9 2-2 2h-30c-1.1 0-2-0.9-2-2v-2c0-1.1 0.9-2 2-2h30c1.1 0 2 0.9 2 2v2z m7.6-18.4l-13.2-13.2c-0.3-0.3-0.6-0.4-1-0.4-0.8 0-1.4 0.6-1.4 1.4v10.6c0 2.2 1.8 4 4 4h10.6c0.8 0 1.4-0.6 1.4-1.4 0-0.4-0.1-0.7-0.4-1z"></path></svg>